<?xml version="1.0"?>
<svg xmlns="http://www.w3.org/2000/svg" height="37" viewBox="0 0 512 512.00038" width="41" class=""><g><path d="m23.804688 504.011719c10.664062 10.660156 27.996093 10.640625 38.640624 0l107.460938-107.464844 14.53125-14.53125c5.601562-5.601563 8.511719-13.339844 7.90625-21.390625l34.089844-34.09375c25.5 18.316406 55.59375 29.828125 87.097656 33.007812.253906.027344.507812.039063.761719.039063 3.804687 0 7.0625-2.878906 7.453125-6.746094.414062-4.121093-2.589844-7.800781-6.710938-8.214843-32.683594-3.300782-63.167968-16.351563-87.324218-35.957032-121.628907-98.363281-50.019532-293.660156 104.074218-293.660156 86.726563 0 156.039063 65.835938 164.378906 148.484375.417969 4.121094 4.101563 7.125 8.214844 6.710937 4.125-.417968 7.128906-4.09375 6.710938-8.214843-9.078125-89.960938-84.539063-161.980469-179.304688-161.980469-146.972656 0-231.894531 166.925781-146.324218 285.609375l-34.054688 34.054687c-8.171875-.613281-15.824219 2.335938-21.402344 7.917969-6.511718 6.507813-118.339844 118.339844-121.996094 121.992188-10.675781 10.679687-10.675781 27.960937 0 38.640625zm150.027343-132.605469-9.230469 9.230469-33.21875-33.21875 9.226563-9.230469c4.945313-4.945312 12.761719-4.664062 17.425781 0l15.796875 15.796875c.003907.003906.007813.011719.011719.015625 4.695312 4.710938 4.847656 12.546875-.011719 17.40625zm20.960938-73.917969c5.675781 6.621094 12.484375 13.519531 19.738281 19.734375l-28.222656 28.222656c-.582032-.714843-1.207032-1.40625-1.871094-2.070312l-15.792969-15.796875c-.664062-.660156-1.355469-1.285156-2.070312-1.867187zm-176.175781 162.695313 102.15625-102.160156 33.21875 33.222656-102.15625 102.15625c-4.800782 4.804687-12.617188 4.804687-17.421876 0l-15.800781-15.796875c-4.8125-4.816407-4.8125-12.605469.003907-17.421875zm0 0" data-original="#000000" class="active-path" data-old_color="#HTTPS:" fill="#204C9E"/><path d="m479.078125 180.234375c0-39.402344-15.308594-76.40625-43.097656-104.199219-57.453125-57.453125-150.9375-57.453125-208.394531 0-57.453126 57.457032-57.453126 150.941406 0 208.394532 28.730468 28.726562 66.464843 43.089843 104.199218 43.089843 80.929688 0 147.292969-65.199219 147.292969-147.285156zm-147.292969 132.292969c-33.890625-.003906-67.792968-12.90625-93.589844-38.703125-51.605468-51.605469-51.605468-135.574219 0-187.179688 25.800782-25.800781 59.695313-38.703125 93.589844-38.703125 72.699219 0 132.289063 58.5625 132.289063 132.292969 0 73.660156-59.523438 132.300781-132.289063 132.292969zm0 0" data-original="#000000" class="active-path" data-old_color="#HTTPS:" fill="#204C9E"/><path d="m364.402344 165.835938c8.09375-8.25 13.09375-19.542969 13.09375-31.984376 0-25.207031-20.507813-45.714843-45.710938-45.714843-25.207031 0-45.714844 20.507812-45.714844 45.714843 0 12.441407 5.003907 23.734376 13.097657 31.984376-21.433594 4.992187-37.453125 24.238281-37.453125 47.167968v32.039063c0 7.980469 6.492187 14.476562 14.476562 14.476562h111.1875c7.980469 0 14.472656-6.496093 14.472656-14.476562v-32.039063c0-22.929687-16.019531-42.175781-37.449218-47.167968zm-32.617188-62.699219c16.933594 0 30.710938 13.777343 30.710938 30.710937 0 16.9375-13.777344 30.714844-30.710938 30.714844-16.9375 0-30.710937-13.777344-30.710937-30.714844 0-16.933594 13.777343-30.710937 30.710937-30.710937zm55.066406 141.378906h-16.476562v-32.980469c0-4.140625-3.355469-7.5-7.5-7.5s-7.5 3.359375-7.5 7.5v32.980469h-47.179688v-32.980469c0-4.140625-3.359374-7.5-7.503906-7.5-4.140625 0-7.5 3.359375-7.5 7.5v32.980469h-16.476562v-31.511719c0-18.4375 15.003906-33.441406 33.441406-33.441406h43.253906c18.4375 0 33.441406 15.003906 33.441406 33.441406zm0 0" data-original="#000000" class="active-path" data-old_color="#HTTPS:" fill="#204C9E"/><path d="m511.089844 198.488281c.417968-4.121093-2.585938-7.800781-6.710938-8.214843-4.121094-.417969-7.796875 2.585937-8.214844 6.707031-7.863281 77.902343-69.472656 139.746093-147.632812 147.632812-4.121094.417969-7.125 4.09375-6.707031 8.21875.386719 3.863281 3.648437 6.746094 7.453125 6.746094.25 0 .503906-.011719.761718-.039063 84.980469-8.574218 152.445313-75.792968 161.050782-161.050781zm0 0" data-original="#000000" class="active-path" data-old_color="#HTTPS:" fill="#204C9E"/></g> </svg>